# xmcd
# 
# Track frame offsets:
#     187
#     16809
#     33669
#     51382
#     69504
#     80977
#     120404
#     134039
#     155194
# 
# Disc length: 2355
# 
# Revision: 0
# Processed by: cddbd v1.5.2PL0 Copyright (c) Steve Scherf et al.
# Submitted via: fre:ac v1.0.31
# 
DISCID=83093109
DTITLE=Eric Clapton - Slowhand
DYEAR=1977
DGENRE=Rock
TTITLE0=Cocaine
TTITLE1=Wonderful Tonight
TTITLE2=Lay Down Sally
TTITLE3=Next Time You See Her
TTITLE4=We're All the Way
TTITLE5=The Core
TTITLE6=May You Never
TTITLE7=Mean Old Frisco
TTITLE8=Peaches and Diesel
EXTD=YEAR: 1977
EXTT0=
EXTT1=
EXTT2=
EXTT3=
EXTT4=
EXTT5=
EXTT6=
EXTT7=
EXTT8=
PLAYORDER=
